# AST/ASF file generated using VICON BodyLanguage
# -----------------------------------------------
:version 1.10
:name VICON
:units
  mass 1.0
  length 0.45
  angle deg
:documentation
   .ast/.asf automatically generated from VICON data using
   VICON BodyBuilder and BodyLanguage model FoxedUp or BRILLIANT.MOD
:root
   order TX TY TZ RX RY RZ
   axis XYZ
   position 0 0 0  
   orientation 0 0 0 
:bonedata
  begin
     id 1 
     name lhipjoint
     direction 0.822369 -0.411937 0.392449 
     length 3.8167 
     axis 0 0 0  XYZ
  end
  begin
     id 2 
     name lfemur
     direction 0.34202 -0.939693 0  
     length 6.16791  
     axis 0 0 20  XYZ
    dof rx ry rz
    limits (-160.0 20.0)
           (-70.0 70.0)
           (-60.0 70.0)
  end
  begin
     id 3 
     name ltibia
     direction 0.34202 -0.939693 0   
     length 7.07101   
     axis 0 0 20   XYZ
    dof rx
    limits (-10.0 170.0)
  end
  begin
     id 4 
     name lfoot
     direction 0.028254 -0.0776273 0.996582   
     length 1.66799   
     axis -90 7.62852e-016 20   XYZ
    dof rx rz
    limits (-45.0 90.0)
           (-70.0 20.0)
  end
  begin
     id 5 
     name ltoes
     direction 1.53483e-011 -4.21688e-011 1   
     length 0.851674   
     axis -90 7.62852e-016 20   XYZ
    dof rx
    limits (-90.0 20.0)
  end
  begin
     id 6 
     name rhipjoint
     direction -0.822466 -0.411836 0.392353   
     length 3.81764  
     axis 0 0 0  XYZ 
  end
  begin
     id 7 
     name rfemur
     direction -0.34202 -0.939693 0   
     length 6.28636   
     axis 0 0 -20   XYZ
    dof rx ry rz
    limits (-160.0 20.0)
           (-70.0 70.0)
           (-70.0 60.0)
  end
  begin
     id 8 
     name rtibia
     direction -0.34202 -0.939693 0   
     length 6.85621   
     axis 0 0 -20   XYZ
    dof rx
    limits (-10.0 170.0)
 end
 begin
     id 9 
     name rfoot
     direction -0.0553036 -0.151945 0.98684   
     length 1.57293  
     axis -90 -7.62852e-016 -20   XYZ
    dof rx rz
    limits (-45.0 90.0)
           (-20.0 70.0)
  end
  begin
     id 10 
     name rtoes
     direction -1.53592e-011 -4.21964e-011 1   
     length 0.802812   
     axis -90 -7.62852e-016 -20   XYZ
    dof rx
    limits (-90.0 20.0)
  end
  begin
     id 11 
     name lowerback
     direction 0.00654913 0.996475 -0.0836396   
     length 1.97212   
     axis 0 0 0   XYZ
    dof rx ry rz
    limits (-20.0 45.0)
           (-30.0 30.0)
           (-30.0 30.0)
  end
  begin
     id 12 
     name upperback
     direction 0.0111875 0.994527 0.103877   
     length 1.89704   
     axis 0 0 0   XYZ
    dof rx ry rz
    limits (-20.0 45.0)
           (-30.0 30.0)
           (-30.0 30.0)
  end
  begin
     id 13 
     name thorax
     direction 0.00473652 0.989004 0.147814   
     length 1.94516   
     axis 0 0 0   XYZ
    dof rx ry rz
    limits (-20.0 45.0)
           (-30.0 30.0)
           (-30.0 30.0)
  end
  begin
     id 14 
     name lowerneck
     direction -0.00925808 0.999011 0.0434791   
     length 1.81771   
     axis 0 0 0   XYZ
    dof rx ry rz
    limits (-20.0 45.0)
           (-30.0 30.0)
           (-30.0 30.0)
  end
  begin
     id 15 
     name upperneck
     direction 0.00451595 0.964412 -0.264365   
     length 1.80434   
     axis 0 0 0   XYZ
    dof rx ry rz
    limits (-20.0 45.0)
           (-30.0 30.0)
           (-30.0 30.0)
  end
  begin
     id 16
     name head
     direction -0.00110849 0.995756 -0.0920241  
     length 1.84006  
     axis 0 0 0   XYZ
    dof rx ry rz
    limits (-20.0 45.0)
           (-30.0 30.0)
           (-30.0 30.0)
  end
  begin
     id 17 
     name lclavicle
     direction 0.921253 0.385213 0.0538957  
     length 3.67415  
     axis 0 0 0   XYZ
    dof ry rz
    limits (-20.0 10.0)
           (0.0 20.0)
  end
  begin
     id 18 
     name lhumerus
     direction 1 -4.48961e-011 6.73441e-028   
     length 4.32712   
     axis 180 -30 -90   XYZ
    dof rx ry rz
    limits (-60.0 90.0)
           (-90.0 90.0)
           (-90.0 90.0)
  end
  begin
     id 19
     name lradius
     direction 1 -4.48985e-011 -9.53507e-028   
     length 3.28587   
     axis 180 -30 -90   XYZ
    dof rx
    limits (-10.0 170.0)
  end
  begin
     id 20
     name lwrist
     direction 1 -4.48951e-011 -4.67472e-027   
     length 1.64293   
     axis 1.65735e-015 90 90   XYZ
    dof ry
    limits (-180.0 0.0)
 end
  begin
     id 21 
     name lhand
     direction 1 -4.48946e-011 -9.34945e-027   
     length 0.433158   
     axis 5.96574e-015 90 90   XYZ
    dof rx rz
    limits (-90.0 90.0)
           (-45.0 45.0)
  end
  begin
     id 22 
     name lfingers
     direction 1 -4.48882e-011 -1.86989e-026   
     length 0.349224   
     axis 1.19315e-014 90 90   XYZ
    dof rx
    limits (0.0 90.0)
  end
  begin
     id 23
     name lthumb
     direction 0.707107 -6.3493e-011 0.707107   
     length 0.501417   
     axis -90 45 2.85299e-015   XYZ
    dof rx rz
    limits (-45.0 45.0)
           (-45.0 45.0)
  end
  begin
     id 24 
     name rclavicle
     direction -0.884378 0.46502 -0.0403866   
     length 3.50218  
     axis 0 0 0   XYZ 
    dof ry rz
    limits (-10.0 20.0)
           (-20.0 0.0)
  end
  begin
     id 25 
     name rhumerus
     direction -1 -4.48964e-011 1.58188e-027  
     length 4.29104   
     axis 180 30 90   XYZ
    dof rx ry rz
    limits (-90.0 60.0)
           (-90.0 90.0)
           (-90.0 90.0)
  end
  begin
     id 26 
     name rradius
     direction -1 -4.48978e-011 -1.9722e-027   
     length 3.2272   
     axis 180 30 90   XYZ
    dof rx
    limits (-10.0 170.0)
  end
  begin
     id 27 
     name rwrist
     direction -1 -4.48969e-011 -4.67472e-027   
     length 1.6136   
     axis 1.65735e-015 -90 -90   XYZ
    dof ry
    limits (-180.0 0.0)
  end
  begin
     id 28
     name rhand
     direction -1 -4.48846e-011 -9.34945e-027   
     length 0.543623   
     axis 5.96574e-015 -90 -90   XYZ
    dof rx rz
    limits (-90.0 90.0)
           (-45.0 45.0)
  end
  begin
     id 29
     name rfingers
     direction -1 -4.49074e-011 -1.86989e-026   
     length 0.438283   
     axis 1.19315e-014 -90 -90   XYZ
    dof rx
    limits (0.0 90.0)
  end
  begin
     id 30
     name rthumb
     direction -0.707107 -6.34834e-011 0.707107   
     length 0.629289   
     axis -90 -45 -2.85299e-015   XYZ
    dof rx rz
    limits (-45.0 45.0)
           (-45.0 45.0)
  end
:hierarchy
  begin
    root lhipjoint rhipjoint lowerback
    lhipjoint lfemur
    lfemur ltibia
    ltibia lfoot
    lfoot ltoes
    rhipjoint rfemur
    rfemur rtibia
    rtibia rfoot
    rfoot rtoes
    lowerback upperback
    upperback thorax
    thorax lowerneck lclavicle rclavicle
    lowerneck upperneck
    upperneck head
    lclavicle lhumerus
    lhumerus lradius
    lradius lwrist
    lwrist lhand lthumb
    lhand lfingers
    rclavicle rhumerus
    rhumerus rradius
    rradius rwrist
    rwrist rhand rthumb
    rhand rfingers
  end

#!OML:ASF H:\GeneralSubjects\Female5\Project 1\Capture day 1\Session 1\Female5.ASF
:FULLY-SPECIFIED
:DEGREES
35
root -32.1957 15.6746 3.32893 -172.202 -0.203716 -177.392
lowerback 5.02741 2.20007 4.38415
upperback -10.1802 2.8128 2.09441
thorax -13.8435 0.616834 -0.507933
lowerneck -16.7236 -2.5012 -6.39476
upperneck 36.2423 -7.77588 6.29849
head 16.277 -4.53874 2.04533
rclavicle -1.13307e-014 1.03368e-014
rhumerus -50.3664 21.192 -86.1821
rradius 34.286
rwrist -17.8547
rhand -15.9906 -23.2234
rfingers 7.12502
rthumb 10.2092 -52.9556
lclavicle -1.13307e-014 1.03368e-014
lhumerus -47.0644 9.94142 74.4793
lradius 31.9667
lwrist -9.69843
lhand -23.6445 31.7669
lfingers 7.12502
lthumb 2.82065 61.728
rfemur 0 0 0
rtibia 0
rfoot 0 0
rtoes 0
lfemur -23.7882 -14.1181 -6.29412
ltibia 20.3932
lfoot -27.833 22.3986
ltoes -60.7903
36
root -32.2035 15.6749 3.33028 -172.229 -0.242447 -177.364
lowerback 4.9646 2.15681 3.77579
upperback -10.0696 2.7126 2.35534
thorax -13.7166 0.659655 0.132408
lowerneck -17.0986 -2.50283 -6.13431
upperneck 36.2922 -7.68343 6.0066
head 16.3558 -4.47586 1.88634
rclavicle -5.96354e-015 -2.8625e-014
rhumerus -50.2671 21.8647 -86.2359
rradius 34.3186
rwrist -18.2672
rhand -16.0756 -23.3814
rfingers 7.12502
rthumb 10.1272 -53.1177
lclavicle -5.96354e-015 -2.8625e-014
lhumerus -46.9669 10.3817 74.5722
lradius 31.9137
lwrist -10.0181
lhand -23.6115 31.762
lfingers 7.12502
lthumb 2.85255 61.7226
rfemur 0 0 0
rtibia 0
rfoot 0 0
rtoes 0
lfemur -23.7642 -14.1181 -6.33705
ltibia 20.3302
lfoot -27.4229 22.7042
ltoes -62.5905
37
root -32.2088 15.6751 3.32987 -172.243 -0.270754 -177.343
lowerback 4.97333 2.13656 3.84345
upperback -10.0848 2.68793 2.28912
thorax -13.7341 0.63639 0.0258272
lowerneck -17.024 -2.45846 -6.31397
upperneck 36.2648 -7.70909 6.35319
head 16.3555 -4.47282 2.06512
rclavicle -1.92821e-014 5.08889e-014
rhumerus -50.2764 21.7988 -86.4136
rradius 34.1765
rwrist -18.1548
rhand -16.0211 -23.2646
rfingers 7.12502
rthumb 10.1798 -52.9983
lclavicle -1.92821e-014 5.08889e-014
lhumerus -47.0163 10.3164 74.5025
lradius 31.925
lwrist -9.9856
lhand -23.8389 31.6332
lfingers 7.12502
lthumb 2.63295 61.5967
rfemur 0 0 0
rtibia 0
rfoot 0 0
rtoes 0
lfemur -23.7049 -14.1706 -6.33817
ltibia 20.2429
lfoot -27.3686 22.7959
ltoes -62.3664
38
root -32.216 15.6733 3.33201 -172.25 -0.300573 -177.394
lowerback 4.90559 2.12138 3.61319
upperback -10.0475 2.64434 2.32408
thorax -13.6595 0.646513 0.199572
lowerneck -16.9885 -2.42845 -6.32645
upperneck 36.2073 -7.67274 6.42576
head 16.3186 -4.44726 2.10746
rclavicle 1.03368e-014 -9.54166e-015
rhumerus -50.1808 21.6713 -86.3632
rradius 34.0147
rwrist -17.9139
rhand -15.8506 -23.1474
rfingers 7.12502
rthumb 10.3443 -52.8729
lclavicle 1.03368e-014 -9.54166e-015
lhumerus -46.9227 10.2474 74.6772
lradius 31.8834
lwrist -9.66079
lhand -24.4541 31.6233
lfingers 7.12502
lthumb 2.03876 61.5933
rfemur 0 0 0
rtibia 0
rfoot 0 0
rtoes 0
lfemur -23.7083 -14.1463 -6.43248
ltibia 20.216
lfoot -27.1513 22.9779
ltoes -62.3813
39
root -32.2239 15.6702 3.33605 -172.269 -0.36228 -177.346
lowerback 5.08999 2.10103 4.21438
upperback -10.2068 2.66533 2.13242
thorax -13.9302 0.56498 -0.348722
lowerneck -16.4573 -2.33555 -6.76543
upperneck 36.1175 -7.58048 6.75623
head 16.1722 -4.4594 2.35295
rclavicle 6.06293e-015 -2.8625e-014
rhumerus -50.5098 21.2162 -86.5501
rradius 33.912
rwrist -17.3885
rhand -15.7253 -23.2256
rfingers 7.12502
rthumb 10.4652 -52.9451
lclavicle 6.06293e-015 -2.8625e-014
lhumerus -47.211 9.82977 74.681
lradius 31.9741
lwrist -9.21095
lhand -24.8116 31.7492
lfingers 7.12502
lthumb 1.6935 61.7222
rfemur 0 0 0
rtibia 0
rfoot 0 0
rtoes 0
lfemur -23.7743 -13.986 -6.42147
ltibia 20.2779
lfoot -26.6929 23.1414
ltoes -62.5394
40
root -32.2322 15.6666 3.33749 -172.339 -0.45667 -177.132
lowerback 5.19985 2.09474 4.50123
upperback -10.2487 2.69515 2.1676
thorax -14.0402 0.54389 -0.474869
lowerneck -16.2732 -2.37876 -6.83302
upperneck 36.0903 -7.55587 6.55275
head 16.1018 -4.49225 2.28331
rclavicle 2.31584e-014 5.1684e-014
rhumerus -50.7286 21.0436 -86.6381
rradius 33.9775
rwrist -17.2334
rhand -15.9991 -23.5431
rfingers 7.12502
rthumb 10.201 -53.2758
lclavicle 2.31584e-014 5.1684e-014
lhumerus -47.3237 9.80222 74.7767
lradius 32.0401
lwrist -9.19459
lhand -24.2032 31.6942
lfingers 7.12502
lthumb 2.2811 61.6618
rfemur 0 0 0
rtibia 0
rfoot 0 0
rtoes 0
lfemur -23.788 -13.874 -6.22794
ltibia 20.3325
lfoot -26.2955 23.3045
ltoes -63.0615
41
root -32.2425 15.663 3.33709 -172.415 -0.565649 -176.956
lowerback 5.21581 2.09436 4.60635
upperback -10.2242 2.71529 2.2299
thorax -14.0196 0.547516 -0.468436
lowerneck -16.3505 -2.58653 -6.8365
upperneck 36.143 -7.72942 6.18742
head 16.1444 -4.60857 2.09008
rclavicle 1.95803e-014 -1.82882e-014
rhumerus -50.9558 21.0109 -86.7699
rradius 34.1799
rwrist -17.4208
rhand -16.4333 -23.7192
rfingers 7.12502
rthumb 9.78215 -53.472
lclavicle 1.95803e-014 -1.82882e-014
lhumerus -47.2992 9.93931 74.8594
lradius 32.0905
lwrist -9.30491
lhand -23.5823 31.5673
lfingers 7.12502
lthumb 2.88072 61.5275
rfemur 0 0 0
rtibia 0
rfoot 0 0
rtoes 0
lfemur -23.8115 -13.8854 -6.08643
ltibia 20.4129
lfoot -26.5208 23.181
ltoes -62.5831
42
root -32.2505 15.6622 3.33606 -172.444 -0.631529 -176.918
lowerback 5.23822 2.08459 4.51137
upperback -10.2509 2.69291 2.26902
thorax -14.0731 0.546447 -0.368475
lowerneck -16.4181 -2.67862 -6.79983
upperneck 36.2469 -7.81947 5.96657
head 16.208 -4.67352 1.96754
rclavicle -2.33572e-014 9.54166e-015
rhumerus -51.1568 20.9422 -86.8635
rradius 34.2681
rwrist -17.3535
rhand -16.2365 -23.3887
rfingers 7.12502
rthumb 9.97199 -53.1325
lclavicle -2.33572e-014 9.54166e-015
lhumerus -47.3828 9.95086 74.9768
lradius 32.1915
lwrist -9.17142
lhand -23.5888 31.5572
lfingers 7.12502
lthumb 2.87448 61.5176
rfemur 0 0 0
rtibia 0
rfoot 0 0
rtoes 0
lfemur -23.8508 -13.8382 -6.09188
ltibia 20.466
lfoot -26.6225 23.1054
ltoes -62.2285
43
root -32.258 15.6624 3.33574 -172.436 -0.673624 -176.953
lowerback 5.17736 2.08603 4.36878
upperback -10.2394 2.67515 2.26009
thorax -14.0263 0.555386 -0.295522
lowerneck -16.4151 -2.58745 -6.68632
upperneck 36.2496 -7.71156 5.97252
head 16.1927 -4.61076 1.97184
rclavicle -8.05078e-015 -1.74931e-014
rhumerus -51.1336 20.663 -86.7925
rradius 34.2305
rwrist -16.838
rhand -15.7484 -23.1112
rfingers 7.12502
rthumb 10.4429 -52.8318
lclavicle -8.05078e-015 -1.74931e-014
lhumerus -47.347 9.78795 75.1772
lradius 32.2867
lwrist -8.97911
lhand -23.5622 31.6665
lfingers 7.12502
lthumb 2.90016 61.6266
rfemur 0 0 0
rtibia 0
rfoot 0 0
rtoes 0
lfemur -23.9045 -13.7618 -6.17984
ltibia 20.5154
lfoot -26.2884 23.1293
ltoes -62.5165
44
root -32.2679 15.6611 3.33705 -172.418 -0.765908 -176.976
lowerback 5.12497 2.0798 4.30022
upperback -10.2294 2.65526 2.23445
thorax -13.9828 0.554229 -0.281926
lowerneck -16.3807 -2.50281 -6.50823
upperneck 36.1979 -7.58468 5.89726
head 16.1326 -4.53768 1.93453
rclavicle 4.27387e-015 -6.99722e-014
rhumerus -51.1511 20.5324 -86.8718
rradius 34.2262
rwrist -16.6333
rhand -15.8075 -23.1553
rfingers 7.12502
rthumb 10.3859 -52.8788
lclavicle 4.27387e-015 -6.99722e-014
lhumerus -47.2666 9.63782 75.3506
lradius 32.3443
lwrist -8.9535
lhand -23.4832 31.6424
lfingers 7.12502
lthumb 2.97643 61.6014
rfemur 0 0 0
rtibia 0
rfoot 0 0
rtoes 0
lfemur -24.0294 -13.6716 -6.28261
ltibia 20.6026
lfoot -26.0212 23.1152
ltoes -62.6624
45
root -32.2771 15.6602 3.33805 -172.43 -0.878569 -176.989
lowerback 5.12765 2.06238 4.22759
upperback -10.233 2.62404 2.22007
thorax -13.992 0.547129 -0.252614
lowerneck -16.3854 -2.4843 -6.46802
upperneck 36.1921 -7.57562 5.92589
head 16.1298 -4.5231 1.94191
rclavicle -6.95746e-016 -1.74931e-014
rhumerus -51.2785 20.6607 -87.1565
rradius 34.3274
rwrist -16.9382
rhand -15.9628 -23.1293
rfingers 7.12502
rthumb 10.236 -52.8602
lclavicle -6.95746e-016 -1.74931e-014
lhumerus -47.2204 9.57687 75.4485
lradius 32.3873
lwrist -9.03523
lhand -23.5306 31.3867
lfingers 7.12502
lthumb 2.93068 61.3463
rfemur 0 0 0
rtibia 0
rfoot 0 0
rtoes 0
lfemur -24.1133 -13.6434 -6.3732
ltibia 20.6407
lfoot -25.6825 23.5146
ltoes -62.9116
46
root -32.2857 15.6596 3.33741 -172.452 -0.980721 -176.982
lowerback 5.11455 2.041 4.17263
upperback -10.2243 2.58984 2.21732
thorax -13.9765 0.538431 -0.219673
lowerneck -16.4217 -2.47266 -6.63721
upperneck 36.2003 -7.6257 6.22617
head 16.1734 -4.5287 2.09185
rclavicle -9.24349e-015 3.18055e-015
rhumerus -51.3824 20.8444 -87.4205
rradius 34.5059
rwrist -17.1875
rhand -15.8475 -23.1487
rfingers 7.12502
rthumb 10.3472 -52.8742
lclavicle -9.24349e-015 3.18055e-015
lhumerus -47.1932 9.61949 75.506
lradius 32.4692
lwrist -9.08852
lhand -23.5235 31.1222
lfingers 7.12502
lthumb 2.93759 61.0818
rfemur 0 0 0
rtibia 0
rfoot 0 0
rtoes 0
lfemur -24.1585 -13.7495 -6.40428
ltibia 20.6859
lfoot -25.5055 23.746
ltoes -63.0209
47
root -32.2948 15.6589 3.33676 -172.465 -1.09451 -176.925
lowerback 5.04971 2.00927 4.16509
upperback -10.1976 2.5457 2.25121
thorax -13.9068 0.523166 -0.170047
lowerneck -16.4264 -2.44425 -6.69165
upperneck 36.161 -7.58393 6.32258
head 16.1585 -4.50187 2.15232
rclavicle 4.87022e-015 -2.38542e-015
rhumerus -51.277 21.0598 -87.6014
rradius 34.4258
rwrist -17.237
rhand -15.9923 -23.4288
rfingers 7.12502
rthumb 10.2075 -53.1611
lclavicle 4.87022e-015 -2.38542e-015
lhumerus -47.1432 9.64196 75.6415
lradius 32.5463
lwrist -8.98461
lhand -23.4853 30.9843
lfingers 7.12502
lthumb 2.97439 60.9433
rfemur 0 0 0
rtibia 0
rfoot 0 0
rtoes 0
lfemur -24.2692 -13.7408 -6.3981
ltibia 20.8061
lfoot -25.0293 24.0794
ltoes -63.4998
